<?xml version="1.0" standalone="no"?>
<!DOCTYPE svg PUBLIC "-//W3C//DTD SVG 20010904//EN"
 "http://www.w3.org/TR/2001/REC-SVG-20010904/DTD/svg10.dtd">
<svg version="1.0" xmlns="http://www.w3.org/2000/svg"
 width="236.000000pt" height="236.000000pt" viewBox="0 0 236.000000 236.000000"
 preserveAspectRatio="xMidYMid meet">
<metadata>
Created by potrace 1.14, written by Peter Selinger 2001-2017
</metadata>
<g transform="translate(0.000000,236.000000) scale(0.100000,-0.100000)"
fill="#000000" stroke="none">
<path d="M928 2263 c7 -3 16 -2 19 1 4 3 -2 6 -13 5 -11 0 -14 -3 -6 -6z"/>
<path d="M888 2253 c7 -3 16 -2 19 1 4 3 -2 6 -13 5 -11 0 -14 -3 -6 -6z"/>
<path d="M753 2206 c-350 -150 -568 -433 -634 -826 -9 -57 -13 -249 -5 -287 2
-11 8 -43 12 -70 27 -188 149 -408 312 -565 253 -243 573 -352 917 -313 195
23 416 131 577 283 54 50 158 179 203 251 26 42 27 45 9 58 -10 7 -20 13 -23
13 -3 0 -24 -28 -46 -63 -283 -441 -755 -611 -1227 -440 -359 129 -620 432
-696 805 -19 95 -13 303 12 413 20 85 43 153 80 231 124 261 283 403 606 542
14 6 21 11 15 11 -5 0 -56 -19 -112 -43z"/>
<path d="M519 2193 c-13 -16 -12 -17 4 -4 9 7 17 15 17 17 0 8 -8 3 -21 -13z"/>
<path d="M1176 2191 c-3 -4 6 -8 20 -9 13 -1 24 0 24 2 0 7 -40 14 -44 7z"/>
<path d="M1234 2188 c-3 -4 13 -8 35 -8 23 0 41 2 41 4 0 8 -71 12 -76 4z"/>
<path d="M946 2169 c-273 -69 -487 -242 -633 -510 -104 -190 -133 -449 -76
-674 69 -274 261 -523 506 -655 318 -172 689 -149 1019 64 52 33 57 38 46 56
-7 11 -16 20 -19 20 -3 0 -46 -24 -95 -53 -100 -61 -189 -98 -302 -129 -112
-30 -306 -30 -422 1 -170 44 -305 124 -440 260 -182 183 -279 406 -285 656 -5
186 33 336 123 490 166 282 431 459 722 482 36 3 67 7 70 10 12 11 -153 -3
-214 -18z"/>
<path d="M429 2123 c-185 -167 -275 -292 -357 -495 -13 -32 -39 -129 -47 -175
-3 -18 -7 -48 -11 -65 -16 -98 -5 -292 26 -424 51 -220 151 -397 314 -559 481
-475 1318 -444 1728 65 33 41 71 91 84 112 79 124 147 305 178 467 21 112 21
113 -11 109 -24 -3 -28 -8 -30 -38 -5 -53 -49 -228 -76 -301 -140 -372 -453
-632 -840 -697 -55 -9 -340 -9 -392 1 -254 46 -467 156 -635 326 -174 175
-261 351 -315 636 -3 17 -8 84 -10 150 -7 229 50 439 172 622 56 85 67 98 185
216 60 59 107 107 105 107 -2 0 -32 -26 -68 -57z"/>
<path d="M1079 2106 c-2 -2 -24 -7 -49 -11 -166 -24 -386 -145 -507 -279 -93
-102 -156 -218 -199 -363 -22 -74 -26 -110 -27 -223 -2 -157 6 -221 44 -334
95 -281 309 -491 579 -569 151 -44 320 -51 473 -21 23 5 27 9 21 27 -9 31 -8
31 -66 19 -29 -6 -116 -10 -193 -8 -119 3 -153 8 -225 31 -103 33 -166 64
-245 120 -256 182 -397 536 -344 865 55 343 316 617 678 710 60 15 102 19 201
17 156 -4 238 -24 378 -93 59 -29 98 -46 87 -38 -31 24 -165 90 -219 108 -83
28 -196 46 -292 46 -50 0 -93 -2 -95 -4z"/>
<path d="M1025 1995 c-221 -47 -391 -163 -515 -352 -148 -224 -181 -525 -84
-770 54 -138 163 -273 292 -362 72 -50 265 -131 311 -131 12 0 20 9 23 25 3
15 1 25 -7 25 -6 0 -41 9 -76 21 -261 85 -440 252 -519 487 -30 91 -35 132
-33 262 6 448 346 783 796 782 48 0 100 -3 115 -6 15 -3 42 -8 60 -11 53 -9
160 -52 225 -92 61 -37 182 -149 230 -213 15 -19 27 -32 27 -28 0 13 -91 122
-144 171 -105 99 -215 157 -360 188 -102 23 -245 24 -341 4z"/>
<path d="M1710 1936 c0 -2 8 -10 18 -17 15 -13 16 -12 3 4 -13 16 -21 21 -21
13z"/>
<path d="M1120 1913 c-142 -19 -238 -54 -336 -120 -278 -189 -403 -535 -302
-838 38 -117 102 -212 213 -317 64 -62 79 -68 94 -40 8 15 -1 28 -55 76 -105
94 -177 202 -215 326 -30 95 -32 251 -6 349 107 395 513 622 892 499 218 -71
368 -217 449 -434 27 -76 35 -73 10 3 -40 121 -86 196 -174 284 -72 73 -101
94 -180 132 -52 26 -124 53 -160 61 -67 15 -186 25 -230 19z"/>
<path d="M1877 1320 c3 -11 7 -20 9 -20 2 0 4 9 4 20 0 11 -4 20 -9 20 -5 0
-7 -9 -4 -20z"/>
</g>
</svg>
